<svg version="1.0" xmlns="http://www.w3.org/2000/svg" width="226.667" height="226.667" viewBox="0 0 170 170"><path d="M109.9 2c-7.2 3.8-16.6 17.5-20.8 30.3-1.3 4.1-.3 6.7 2.5 6.7 1.7 0 1.8 1.2.4 2.6-1.6 1.6-.1 4.4 2.3 4.4 1.1 0 4.3-1.5 7.1-3.4 14-9.2 22.9-12.2 32.8-11.2 12.5 1.3 12.3 1.4 12.6-1.6.3-2.5-.1-2.8-4.9-4.2-2.9-.9-7.7-1.6-10.7-1.6-5.4 0-15.9 2.4-17.6 4.1-.6.5-1.6.9-2.4.9-.7 0-2.9 1.2-4.8 2.6-1.9 1.5-3.7 2.4-4 2.2-1-1 20.9-19.8 23.1-19.8 3.1 0 5.8-2.3 5.4-4.6-.3-1.4-1.4-2-4.2-2.2-4-.3-7.9 1.5-13.2 6.5-1.6 1.5-5.1 4.8-7.8 7.2-2.6 2.4-5 4.2-5.3 3.9-.6-.7 3-7 6.8-11.9 1.5-2 4.6-4.4 6.7-5.2 4.6-1.9 5.5-3 4.6-5.7-.8-2.5-3.9-2.5-8.6 0zM29.5 31.6c-5.1.4-6.8.8-19.1 4.4-7.5 2.2-11.1 4.8-10 7.5 1 2.7 3.4 2.8 8.3.4 11.6-5.6 38.1-7.6 47.5-3.5 2 .9 3.9 1.9 4.1 2.3.3.5-4.8.9-11.2 1-14 .3-25.4 3.3-25.9 6.9-.6 3.9 1.9 4.6 8.4 2.4 4.5-1.6 8.5-2.1 16.9-2.1 6.1-.1 12.4.1 14 .3 2.6.3 3 0 3.3-2.5.2-1.5.8-2.7 1.3-2.7s.9-1.1.9-2.5c0-3.2-4-7.1-9.8-9.6-4.5-2-18.6-3.1-28.7-2.3zm19 22.1c-1.1.3-2.4.9-2.9 1.4-.6.5-1.6.9-2.2.9C41 56 30 63.2 26.5 67.1c-2.9 3.3-3.4 4.3-2.5 5.9 1.4 2.6 4.5 2.6 6.3 0 4-5.7 17.7-12.8 25.6-13.2 5.7-.3 8-2.1 6.8-5.2-.5-1.2-1.9-1.6-6.4-1.5-3.2.1-6.7.3-7.8.6zm45 4.2c-2.9 1.2-5.1 4-6.4 8.3-.7 2.1-1.6 4-2.1 4.3-.5.3-3.7-.8-7.1-2.6-7.2-3.6-17.2-5.5-21.1-4-9.1 3.4-14.2 14.9-11.7 26.1 1.5 6.9 5.8 12.5 14.7 19.2 10.9 8.2 22.1 8.5 30.1.9 3.2-3 4.3-3.4 9.8-3.7 11.1-.6 19.6-6.4 21.4-14.5 2.9-12.7-4.6-26.6-17.7-32.9-4.3-2.1-6.7-2.4-9.9-1.1zm8.5 8.2c7.2 4.3 10.8 9.1 12.4 16.2.6 2.5.5 2.7-1.3 1.8-3.5-1.9-6.8-1.2-10 2-1.7 1.7-3.1 3.7-3.1 4.5 0 1.8 1.9 5.7 3.3 6.5 1.9 1.3-.5 2.9-4.1 2.9h-3.7l-.2-6.9c-.1-3.8-.9-8.5-1.7-10.6-2-4.6-2-9.2-.2-13.6 2.4-5.7 3.3-6 8.6-2.8zm-31 6.1c6 2.1 13.7 7.6 15.4 11.2 2.3 4.8 2.1 5.2-2.4 4.8-3.6-.4-4.4 0-7.5 3.3-1.9 2-3.5 4.7-3.5 6 0 2.3 4.4 7.8 6.9 8.6 2.3.8.2 2.9-2.8 2.9-7.5 0-19.6-8.4-23.6-16.3-1.4-2.8-2.5-6.2-2.5-7.6 0-4 2.4-9.8 5.1-12.7 2.1-2.3 2.9-2.5 6.9-2 2.4.3 6 1.2 8 1.8z"/><path d="M148.5 79.4c-2.5 3.2-3.2 3.6-7.4 3.6-2.6 0-5.2-.5-5.7-1-1.8-1.8-4.4 0-4.4 3.1 0 3.4 2.3 4.9 7.5 4.9 4.4 0 5.1 1.6 3.5 7.8-5.1 18.7-18.8 34.6-37.5 43.3-4.2 2-6.6 2.4-15.6 2.4-9.3 0-11.1-.3-15.4-2.5-7.1-3.6-19.4-14.7-23.9-21.4-3.4-5.1-3.8-6.1-2.7-7.8 1-1.6.9-2.3-.5-3.9-2.3-2.5-3.2-2.4-6 .6-1.9 2.1-3.2 2.6-6.7 2.4-5-.3-6.7.5-6.7 3 0 2.4 4.7 4.4 9.3 4 3.3-.3 3.8 0 7.6 5.6 4 6 12.3 14 21 20.3 7 5.1 16.6 7.6 26.5 6.9 8.5-.5 9.9-.9 21.2-6.3 18.8-9 34.2-30.3 37.3-51.4.3-2.5 1.9-6.5 3.5-8.8 2.3-3.4 2.7-4.7 1.9-6-1.8-2.9-4-2.5-6.8 1.2z"/><path d="M106 109.8c-4.4 3.5-.2 8.2 4.3 4.8 2.2-1.7 2.2-4.3-.2-5.6-1.5-.7-2.4-.5-4.1.8zm-9.8 5.9c-1.3 2.4.3 5.3 2.9 5.3 2.4 0 3.6-2.7 2.2-4.9-1.5-2.3-4-2.5-5.1-.4z"/></svg>